<svg xmlns="http://www.w3.org/2000/svg" viewBox="0 0 259.22 117.87"><defs><style>.cls-1{fill:#ff5900;}</style></defs><title>chipper_logo_orange_slogan</title><g id="Layer_2" data-name="Layer 2"><g id="Layer_1-2" data-name="Layer 1"><path class="cls-1" d="M0,51.85l0-1.19A53.35,53.35,0,0,1,6.22,27.52,48.66,48.66,0,0,1,19.54,11.43Q27.48,5.37,35,5.36a11.17,11.17,0,0,1,9,4,12.87,12.87,0,0,1,2.83,8.44q0,6-4.39,11.79a16.24,16.24,0,0,1-5.4,4.83,5.21,5.21,0,0,1-2.52.74,4.69,4.69,0,0,1-2.15-.49,6.55,6.55,0,0,1-1.72-1.23,4.48,4.48,0,0,1-1.52-2.87,2.07,2.07,0,0,1,.66-1.76Q36.58,24,39,18.84A8.82,8.82,0,0,0,39.93,15c0-2.65-1.25-4-3.77-4Q30.26,11,24,17.45a49.64,49.64,0,0,0-9.83,14.91A45.14,45.14,0,0,0,9.79,49.27l0,1.56q0,9.21,3.89,12.08a5.5,5.5,0,0,0,3.34,1,13.16,13.16,0,0,0,3.66-.49,20.08,20.08,0,0,0,3.44-1.35,44.46,44.46,0,0,0,7.13-5,1.31,1.31,0,0,1,2.17.29,4.23,4.23,0,0,1,.74,2.46,5.51,5.51,0,0,1-.64,3.17,10.72,10.72,0,0,1-2.17,2,19.2,19.2,0,0,1-3.75,2.13,24.76,24.76,0,0,1-10.11,2.29,21.84,21.84,0,0,1-8-1.21,13.7,13.7,0,0,1-5.12-3.46Q0,60.05,0,51.85"/><path class="cls-1" d="M69.92,34.4q-2.25,0-8.07,6.89l-3.4,4.17L51.9,54q-2.38,4.51-3.73,7.5L46,66.27a11.92,11.92,0,0,1-1.5,2.48,2.19,2.19,0,0,1-1.72.71,5.74,5.74,0,0,1-2.09-.39,6.15,6.15,0,0,1-1.74-1,3.73,3.73,0,0,1-1.55-2.87,7.25,7.25,0,0,1,.86-2.41l1.64-3.32q7.65-15.76,13.88-40A154.71,154.71,0,0,0,57.06,3.44Q57.51,0,60.42,0a5.14,5.14,0,0,1,3.11.9c1.58,1.18,2.35,2.43,2.29,3.77a29.08,29.08,0,0,1-.57,4.51q-.5,2.49-1.27,5.42t-1.76,6.17q-2.7,8.22-4,11.87-4,11-5,12.91c.41-.5.94-1.17,1.6-2q7.44-9.8,9.21-11.7a33.73,33.73,0,0,1,3-2.92,9.56,9.56,0,0,1,6.55-2.26,6.73,6.73,0,0,1,5.21,2.17,6.83,6.83,0,0,1,1.84,4.57,17.1,17.1,0,0,1-.55,4.47,33.56,33.56,0,0,1-1.42,4q-.86,2-1.88,4.22l-2,4.3q-2.86,6.51-2.87,9.66c0,1.48.6,2.22,1.81,2.22a6.69,6.69,0,0,0,3.13-.74,5.83,5.83,0,0,1,1.82-.74.76.76,0,0,1,.86.86c0,2.43-1.23,4.47-3.68,6.1a8.63,8.63,0,0,1-4.63,1.68A11.59,11.59,0,0,1,67.73,69a6.18,6.18,0,0,1-2.44-1.41c-1.61-1.47-2.42-3.65-2.42-6.51q0-4.63,3-11.63l4.43-9.42a10.49,10.49,0,0,0,1.27-4.14c0-1-.56-1.52-1.68-1.52"/><path class="cls-1" d="M105.68,17.06a7.9,7.9,0,0,1-2.05,1.56,6.92,6.92,0,0,1-2.42.73A4.25,4.25,0,0,1,98.82,19a5.61,5.61,0,0,1-1.95-1.51,6.39,6.39,0,0,1-1.76-4.14,5.83,5.83,0,0,1,.67-3.13,5.74,5.74,0,0,1,1.7-1.7,6.91,6.91,0,0,1,3.71-1.27,11.73,11.73,0,0,1,2.7.24,5.6,5.6,0,0,1,1.79.82,3.94,3.94,0,0,1,2,3.3,8.24,8.24,0,0,1-.55,3.24,7.7,7.7,0,0,1-1.45,2.25M97.28,61.4c.71,0,1.06.46,1.06,1.39a6,6,0,0,1-1.67,3.81,8.25,8.25,0,0,1-6.6,2.86q-4.75,0-6.51-3.85a7.39,7.39,0,0,1-.66-3.27,15.65,15.65,0,0,1,.68-4.28q.67-2.36,1.68-5c.67-1.73,1.4-3.49,2.19-5.26l2.17-5.16C91.2,38.83,92,36.29,92,35.06a5,5,0,0,0-.39-2.44,3.6,3.6,0,0,0-.84-.92L90,31.13a1.13,1.13,0,0,1-.41-1,2.11,2.11,0,0,1,.55-1.37,4.91,4.91,0,0,1,1.46-1.14,9.27,9.27,0,0,1,4.3-.95c4,0,6,1.06,6,3.16a22.79,22.79,0,0,1-1.93,8.41c-1.28,3.16-2.37,5.7-3.27,7.64l-2.46,5.65c-1.8,4.16-2.71,7.15-2.71,9a1.6,1.6,0,0,0,1.81,1.81A6.16,6.16,0,0,0,96,61.85a3.48,3.48,0,0,1,1.31-.45"/><path class="cls-1" d="M212.39,32.11q-4.3,0-8.28,5.9a44.18,44.18,0,0,0-5.4,12,19.89,19.89,0,0,0,11.88-5.41q4.62-4.43,4.62-8.47t-2.82-4.06M188.47,54.72a26.41,26.41,0,0,1,1.19-6.82,32.76,32.76,0,0,1,2.74-6.31,37.13,37.13,0,0,1,4-5.77,31.7,31.7,0,0,1,5-4.77q5.87-4.39,11.84-4.39,7,0,9.34,5.78a11.64,11.64,0,0,1,.77,4.65,12.58,12.58,0,0,1-1,4.95,14.21,14.21,0,0,1-2.72,4.14,20.11,20.11,0,0,1-4.14,3.34A29.26,29.26,0,0,1,210.3,52a39,39,0,0,1-12.45,2.13,7.71,7.71,0,0,0-.21,1.72,11.57,11.57,0,0,0,.25,2.56,7.44,7.44,0,0,0,1,2.51,4.68,4.68,0,0,0,4.26,2.46,17.47,17.47,0,0,0,9.26-2.78,13.23,13.23,0,0,0,2.6-1.95,2.74,2.74,0,0,1,1.74-1,1.55,1.55,0,0,1,1.29.88,3.65,3.65,0,0,1,.55,2,6,6,0,0,1-1.23,3.77q-5.16,5.16-15.36,5.16a13.15,13.15,0,0,1-9.66-3.6q-4.09-4.09-3.85-11.14"/><path class="cls-1" d="M224.43,68.07a5.29,5.29,0,0,1-1.31-1.37,2.83,2.83,0,0,1-.53-1.31,3.63,3.63,0,0,1,.22-1.35c.18-.54.42-1.18.72-2q8.35-20.55,8.35-27.6a3.38,3.38,0,0,0-1.35-2.79l-.82-.57a1.3,1.3,0,0,1-.39-1,2.07,2.07,0,0,1,.52-1.37,4.7,4.7,0,0,1,1.39-1.14,7.56,7.56,0,0,1,3.62-.95,8.33,8.33,0,0,1,2.91.41,5.72,5.72,0,0,1,1.78,1.11,4.38,4.38,0,0,1,1.58,3.11,14.08,14.08,0,0,1-.37,3.32c-.26,1.12-.57,2.22-.92,3.3s-.71,2.1-1.07,3.07a19.28,19.28,0,0,0-.69,2.15,5.59,5.59,0,0,0-.25,1.8A3.52,3.52,0,0,0,239,43.25l1.59-3q5.33-9.59,10.4-12.7a7,7,0,0,1,3.55-.86,4.21,4.21,0,0,1,3.33,1.46,5,5,0,0,1,1.33,3.21,10.55,10.55,0,0,1-.24,2.93,8.47,8.47,0,0,1-.92,2.19c-.9,1.53-2,2.3-3.28,2.3a1.55,1.55,0,0,1-1-.37l-.9-.78a4,4,0,0,0-2.6-1.19,5,5,0,0,0-3,1.64,30.78,30.78,0,0,0-3.71,4.22A78.26,78.26,0,0,0,233,61.44l-1.8,4.75A14,14,0,0,1,230,68.71a1.82,1.82,0,0,1-1.58.75,6,6,0,0,1-2.09-.39,7.21,7.21,0,0,1-1.86-1"/><path class="cls-1" d="M159.3,91.8l-7.57,4.55a.8.8,0,0,0,.53,1.48l4.3-.66a.81.81,0,0,1,.86.47l1.71,4a.8.8,0,0,0,1.53-.32l-.15-8.84a.8.8,0,0,0-1.21-.67"/><path class="cls-1" d="M160.09,47.69a37,37,0,0,0-2.42,5.76,17.08,17.08,0,0,0-.92,5.24,6.91,6.91,0,0,0,1,3.91,3.39,3.39,0,0,0,3,1.54,8.23,8.23,0,0,0,4-1.09,17.72,17.72,0,0,0,3.85-2.92,26.15,26.15,0,0,0,3.48-4.33,33.44,33.44,0,0,0,2.8-5.26A29.42,29.42,0,0,0,177.51,39a11,11,0,0,0-.78-4.59,2.51,2.51,0,0,0-2.39-1.63A5.83,5.83,0,0,0,171,34.06a25.39,25.39,0,0,0-3.69,3.31,45.57,45.57,0,0,0-3.81,4.76,47.83,47.83,0,0,0-3.37,5.56m-6.33,17.47c.15.25-.35,1.43-.42,1.68-.35,1.29-5.84,18-7.31,19.62a4.28,4.28,0,0,1-3.28,1.47,3.86,3.86,0,0,1-3.56-2.29,2.88,2.88,0,0,1-.37-1.46,6.6,6.6,0,0,1,.72-2.32c.53-1.26,6.43-18,8-23.7q2.17-7.86,2.87-10.69l1.31-5.12a69.21,69.21,0,0,0,1.49-6.9,4.32,4.32,0,0,0-.22-2.58,3.52,3.52,0,0,0-1-1.15c-.39-.26-.74-.48-1.07-.67a1,1,0,0,1-.41-1.05,2.4,2.4,0,0,1,.68-1.39,5.18,5.18,0,0,1,1.49-1.09,8.77,8.77,0,0,1,3.71-.86,7.73,7.73,0,0,1,2.93.45,4.89,4.89,0,0,1,1.76,1.23,4,4,0,0,1,1.31,3.12c-.27,2.1-.58,3.9-.9,5.4q7.17-10.2,14.86-10.2,7,0,9.38,7.25a20.27,20.27,0,0,1,.82,6.19,25.42,25.42,0,0,1-1.1,7.31,33.43,33.43,0,0,1-3,6.94,35.55,35.55,0,0,1-4.38,6,34.83,34.83,0,0,1-5.29,4.81q-5.89,4.26-11.14,4.26a8.6,8.6,0,0,1-7.86-4.3"/><path class="cls-1" d="M169.69,51a3.79,3.79,0,0,1-1.06.81,3.64,3.64,0,0,1-1.24.38,2.28,2.28,0,0,1-1.24-.2,3.19,3.19,0,0,1-1-.78,3.31,3.31,0,0,1-.9-2.14,2.54,2.54,0,0,1,1.22-2.5,3.64,3.64,0,0,1,1.92-.65,5.63,5.63,0,0,1,1.39.13,2.65,2.65,0,0,1,.92.42,2,2,0,0,1,1,1.7,4.24,4.24,0,0,1-.29,1.67,3.86,3.86,0,0,1-.75,1.16"/><path class="cls-1" d="M123.21,112.84c-6.63-.67-12.95-3.74-16.74-9.35a20.56,20.56,0,0,1-2.46-5c-.52-1.59-2-7.77-5.26-6.69-4.17,1.39-2.21,9-1.11,11.86a20.38,20.38,0,0,0,10.08,10.72,33.86,33.86,0,0,0,11.9,3.3c14.34,1.45,29.49-6.66,37.11-18.95,1.42-2.29,1.06-3-.88-.56-7.63,9.74-20.44,15.88-32.64,14.64"/><path class="cls-1" d="M161.26,83.43v3h1.49a2,2,0,0,0,1.33-.38,1.45,1.45,0,0,0,.45-1.18,1.31,1.31,0,0,0-.46-1.1,2.22,2.22,0,0,0-1.39-.36Zm0-1.26h1.35a2.11,2.11,0,0,0,1.29-.31,1.25,1.25,0,0,0,.4-1,1.09,1.09,0,0,0-.44-1,2.48,2.48,0,0,0-1.38-.3h-1.22Zm-1.4-3.93h2.55a4.47,4.47,0,0,1,2.56.57,2.1,2.1,0,0,1,.78,1.81,2.42,2.42,0,0,1-.38,1.39,1.67,1.67,0,0,1-1.12.69v.07a2.12,2.12,0,0,1,1.33.74A2.48,2.48,0,0,1,166,85a2.55,2.55,0,0,1-.81,2,3.25,3.25,0,0,1-2.24.73h-3.1Z"/><path class="cls-1" d="M170.22,81.58a1.3,1.3,0,0,0-1.05.47,2.32,2.32,0,0,0-.48,1.34h2.95a2.17,2.17,0,0,0-.39-1.35,1.27,1.27,0,0,0-1-.46m.25,6.31a3,3,0,0,1-2.36-1,4,4,0,0,1-.86-2.7,4.46,4.46,0,0,1,.79-2.78,2.63,2.63,0,0,1,2.18-1,2.54,2.54,0,0,1,2,.86,3.57,3.57,0,0,1,.74,2.38v.83h-4.32a2.51,2.51,0,0,0,.51,1.61,1.68,1.68,0,0,0,1.36.57,4.47,4.47,0,0,0,1.06-.12,5.71,5.71,0,0,0,1.07-.4V87.4a4.23,4.23,0,0,1-1,.38,6,6,0,0,1-1.18.11"/><path class="cls-1" d="M179.68,86.71a1.59,1.59,0,0,0,1.2-.46,1.82,1.82,0,0,0,.46-1.31v-.62l-.84,0a2.52,2.52,0,0,0-1.41.36,1.12,1.12,0,0,0-.44,1,1,1,0,0,0,.25.74,1,1,0,0,0,.78.26m2,1.05-.28-1h0a2.81,2.81,0,0,1-.95.9,2.67,2.67,0,0,1-1.22.24,1.93,1.93,0,0,1-1.49-.58,2.26,2.26,0,0,1-.53-1.62A2,2,0,0,1,178,84a4,4,0,0,1,2.27-.62l1.12,0V83a1.58,1.58,0,0,0-.29-1,1.13,1.13,0,0,0-.9-.34,2.85,2.85,0,0,0-1,.16,8.64,8.64,0,0,0-.88.38l-.44-1.09a4.7,4.7,0,0,1,1.15-.47,5.21,5.21,0,0,1,1.19-.16,2.6,2.6,0,0,1,1.86.6,2.51,2.51,0,0,1,.63,1.89v4.85Z"/><path class="cls-1" d="M192.11,85.71a2,2,0,0,1-.69,1.61,3.07,3.07,0,0,1-2,.57,4.33,4.33,0,0,1-2.09-.44V86.13a4.75,4.75,0,0,0,2.13.58c.85,0,1.27-.28,1.27-.85a.67.67,0,0,0-.14-.45,1.55,1.55,0,0,0-.46-.38,6.32,6.32,0,0,0-.9-.44,4.2,4.2,0,0,1-1.51-1,1.88,1.88,0,0,1-.4-1.25,1.72,1.72,0,0,1,.67-1.43,2.91,2.91,0,0,1,1.83-.52,4.78,4.78,0,0,1,2.16.52l-.44,1.15a4.44,4.44,0,0,0-1.77-.48c-.72,0-1.09.23-1.09.69a.7.7,0,0,0,.29.57,6,6,0,0,0,1.24.65,5.51,5.51,0,0,1,1.16.63,1.88,1.88,0,0,1,.54.66,2.06,2.06,0,0,1,.18.9"/><path class="cls-1" d="M199.06,87.76h-1.38V83.32a2.16,2.16,0,0,0-.29-1.24,1,1,0,0,0-.87-.41,1.29,1.29,0,0,0-1.17.58,3.67,3.67,0,0,0-.38,1.92v3.59H193.6V80.55h1.07l.2,1h.07a1.94,1.94,0,0,1,.78-.8,2.39,2.39,0,0,1,1.13-.28,1.92,1.92,0,0,1,2,1.14h.09a2.11,2.11,0,0,1,.81-.84,2.38,2.38,0,0,1,1.2-.3,2,2,0,0,1,1.69.66,3.1,3.1,0,0,1,.53,2v4.7h-1.38V83.32a2.17,2.17,0,0,0-.28-1.24,1,1,0,0,0-.88-.41,1.32,1.32,0,0,0-1.18.56,3.1,3.1,0,0,0-.37,1.71Z"/><path class="cls-1" d="M207.08,86.71a1.59,1.59,0,0,0,1.2-.46,1.81,1.81,0,0,0,.45-1.31v-.62l-.83,0a2.49,2.49,0,0,0-1.41.36,1.12,1.12,0,0,0-.45,1,1,1,0,0,0,.26.74,1,1,0,0,0,.78.26m2,1.05-.28-1h0a2.27,2.27,0,0,1-2.16,1.14,1.91,1.91,0,0,1-1.49-.58,2.26,2.26,0,0,1-.54-1.62,2,2,0,0,1,.75-1.68,4,4,0,0,1,2.27-.62l1.12,0V83a1.58,1.58,0,0,0-.29-1,1.13,1.13,0,0,0-.9-.34,2.8,2.8,0,0,0-1,.16,8.64,8.64,0,0,0-.88.38l-.44-1.09a4.7,4.7,0,0,1,1.15-.47,5.13,5.13,0,0,1,1.18-.16,2.61,2.61,0,0,1,1.87.6,2.51,2.51,0,0,1,.63,1.89v4.85Z"/><path class="cls-1" d="M215.32,80.42a3.19,3.19,0,0,1,.69.07l-.14,1.43a2,2,0,0,0-.61-.08,1.69,1.69,0,0,0-1.34.6,2.3,2.3,0,0,0-.51,1.55v3.77H212V80.55h1.08l.18,1.27h.07a2.77,2.77,0,0,1,.85-1,1.84,1.84,0,0,1,1.11-.38"/><path class="cls-1" d="M219.62,86.65a3,3,0,0,0,1-.18v1.16a2.78,2.78,0,0,1-.59.18,3.67,3.67,0,0,1-.75.08c-1.3,0-1.95-.77-1.95-2.3V81.71h-.89V81l1-.56.47-1.53h.85v1.6h1.85v1.16h-1.85v3.86a1.15,1.15,0,0,0,.25.82.87.87,0,0,0,.65.26"/><path class="cls-1" d="M228,81.67a1.34,1.34,0,0,0-1.2.55,3.5,3.5,0,0,0-.38,1.82v.1a3.7,3.7,0,0,0,.38,1.91,1.34,1.34,0,0,0,1.22.59,1.21,1.21,0,0,0,1.11-.65,3.74,3.74,0,0,0,.38-1.86c0-1.64-.5-2.46-1.51-2.46m.36-1.25a2.2,2.2,0,0,1,1.89,1,4.79,4.79,0,0,1,.67,2.74,4.85,4.85,0,0,1-.68,2.76,2.21,2.21,0,0,1-1.91,1,2.18,2.18,0,0,1-1.91-1h-.09l-.25.86h-1V77.62h1.38V80c0,.18,0,.45,0,.8s0,.57,0,.67h.06a2.13,2.13,0,0,1,1.94-1.08"/><path class="cls-1" d="M237.09,87.76l-.19-1h-.07a2,2,0,0,1-.82.79,2.49,2.49,0,0,1-1.21.29,2.27,2.27,0,0,1-1.76-.65,3,3,0,0,1-.58-2V80.55h1.39V85a2,2,0,0,0,.31,1.24,1.11,1.11,0,0,0,1,.41,1.45,1.45,0,0,0,1.28-.58,3.45,3.45,0,0,0,.4-1.93V80.55h1.39v7.21Z"/><path class="cls-1" d="M239.16,80.55h1.5L242,84.64a8,8,0,0,1,.4,1.64h0a7,7,0,0,1,.19-.87c.1-.34.59-2,1.49-4.86h1.49l-2.77,8.16Q242.06,91,240.3,91a3.74,3.74,0,0,1-.89-.11V89.64a3,3,0,0,0,.71.08c.66,0,1.13-.43,1.4-1.29l.24-.67Z"/><path class="cls-1" d="M249.15,81.58a1.33,1.33,0,0,0-1.05.47,2.31,2.31,0,0,0-.47,1.34h2.94a2.17,2.17,0,0,0-.38-1.35,1.31,1.31,0,0,0-1-.46m.26,6.31a3,3,0,0,1-2.37-1,4,4,0,0,1-.85-2.7,4.4,4.4,0,0,1,.79-2.78,2.61,2.61,0,0,1,2.17-1,2.51,2.51,0,0,1,2,.86,3.52,3.52,0,0,1,.75,2.38v.83h-4.32a2.51,2.51,0,0,0,.51,1.61,1.67,1.67,0,0,0,1.35.57,4.55,4.55,0,0,0,1.07-.12,5.63,5.63,0,0,0,1.06-.4V87.4a3.94,3.94,0,0,1-1,.38,5.82,5.82,0,0,1-1.17.11"/><path class="cls-1" d="M256.78,80.42a3.09,3.09,0,0,1,.68.07l-.13,1.43a2.09,2.09,0,0,0-.61-.08,1.68,1.68,0,0,0-1.34.6,2.3,2.3,0,0,0-.51,1.55v3.77h-1.38V80.55h1.08l.18,1.27h.07a2.85,2.85,0,0,1,.84-1,1.89,1.89,0,0,1,1.12-.38"/><path class="cls-1" d="M117.76,47.69a38,38,0,0,0-2.42,5.76,17.39,17.39,0,0,0-.92,5.24,6.91,6.91,0,0,0,1,3.91,3.42,3.42,0,0,0,3,1.54,8.22,8.22,0,0,0,4-1.09,17.48,17.48,0,0,0,3.85-2.92,26.15,26.15,0,0,0,3.48-4.33,34.33,34.33,0,0,0,2.81-5.26A29.42,29.42,0,0,0,135.19,39a11,11,0,0,0-.78-4.59,2.53,2.53,0,0,0-2.4-1.63,5.85,5.85,0,0,0-3.38,1.25A24.85,24.85,0,0,0,125,37.37a43.11,43.11,0,0,0-3.81,4.76,46.57,46.57,0,0,0-3.38,5.56m-6.33,17.47c.15.25-.35,1.43-.42,1.68-.35,1.29-5.84,18-7.31,19.62a4.28,4.28,0,0,1-3.27,1.47,3.87,3.87,0,0,1-3.57-2.29,3,3,0,0,1-.37-1.46,6.41,6.41,0,0,1,.73-2.32c.53-1.26,6.42-18,8-23.7q2.17-7.86,2.87-10.69l1.31-5.12a70.23,70.23,0,0,0,1.5-6.9,4.3,4.3,0,0,0-.23-2.58,3.52,3.52,0,0,0-1-1.15c-.38-.26-.74-.48-1.07-.67a1,1,0,0,1-.41-1.05,2.4,2.4,0,0,1,.68-1.39,5.32,5.32,0,0,1,1.49-1.09,8.77,8.77,0,0,1,3.71-.86,7.73,7.73,0,0,1,2.93.45,4.81,4.81,0,0,1,1.76,1.23A4,4,0,0,1,120,31.46q-.41,3.15-.9,5.4,7.17-10.2,14.87-10.2,7,0,9.38,7.25a20.58,20.58,0,0,1,.82,6.19,25.09,25.09,0,0,1-1.11,7.31,32.9,32.9,0,0,1-3,6.94,35.55,35.55,0,0,1-4.38,6,34.83,34.83,0,0,1-5.29,4.81q-5.9,4.26-11.14,4.26a8.61,8.61,0,0,1-7.86-4.3"/><path class="cls-1" d="M127.36,51a3.89,3.89,0,0,1-1,.81,3.7,3.7,0,0,1-1.25.38,2.28,2.28,0,0,1-1.24-.2,3,3,0,0,1-1-.78,3.28,3.28,0,0,1-.91-2.14,3,3,0,0,1,.35-1.62,2.92,2.92,0,0,1,.87-.88,3.64,3.64,0,0,1,1.92-.65,5.57,5.57,0,0,1,1.39.13,2.65,2.65,0,0,1,.92.42,2,2,0,0,1,1,1.7,4.24,4.24,0,0,1-.29,1.67,3.86,3.86,0,0,1-.75,1.16"/></g></g></svg>